<svg width="263" height="431" viewBox="0 0 263 431" fill="none" xmlns="http://www.w3.org/2000/svg">
<mask id="mask0_233_840" style="mask-type:alpha" maskUnits="userSpaceOnUse" x="0" y="0" width="263" height="431">
<rect width="263" height="431" rx="5" fill="#E1CB57"/>
</mask>
<g mask="url(#mask0_233_840)">
<path d="M76.9477 582.316C101.304 624.561 161.696 624.561 186.052 582.316L195.652 565.664C206.918 546.124 227.576 534.071 249.953 533.981L269.022 533.904C317.401 533.709 347.597 480.853 323.574 438.412L314.106 421.684C302.994 402.054 302.994 377.946 314.106 358.316L323.574 341.588C347.597 299.148 317.401 246.291 269.022 246.096L249.953 246.02C227.576 245.929 206.918 233.876 195.652 214.336L186.052 197.684C161.696 155.439 101.304 155.439 76.9478 197.684L67.3475 214.336C56.0819 233.876 35.4238 245.929 13.0468 246.02L-6.02201 246.096C-54.4014 246.291 -84.5971 299.148 -60.5743 341.588L-51.1057 358.316C-39.9944 377.946 -39.9944 402.054 -51.1057 421.684L-60.5743 438.412C-84.5971 480.852 -54.4014 533.709 -6.02206 533.904L13.0468 533.981C35.4237 534.071 56.0818 546.124 67.3475 565.664L76.9477 582.316Z" fill="#FBEC9E"/>
</g>
</svg>
