<svg width="520" height="523" viewBox="0 0 520 523" fill="none" xmlns="http://www.w3.org/2000/svg">
<mask id="mask0_233_849" style="mask-type:alpha" maskUnits="userSpaceOnUse" x="0" y="0" width="520" height="523">
<path d="M260 0C260 0 287.315 61.0219 324.204 72.487C361.093 83.9522 420.689 49.9421 420.689 49.9421C420.689 49.9421 405.29 114.667 428.089 144.684C450.887 174.7 520 180.692 520 180.692C520 180.692 467.769 224.398 467.769 261.5C467.769 298.602 520 342.308 520 342.308C520 342.308 450.887 348.3 428.089 378.316C405.29 408.333 420.689 473.058 420.689 473.058C420.689 473.058 361.093 439.048 324.204 450.513C287.315 461.978 260 523 260 523C260 523 232.685 461.978 195.796 450.513C158.907 439.048 99.3112 473.058 99.3112 473.058C99.3112 473.058 114.71 408.333 91.9114 378.316C69.1126 348.3 0 342.308 0 342.308C0 342.308 52.2311 298.602 52.2311 261.5C52.2311 224.398 0 180.692 0 180.692C0 180.692 69.1126 174.7 91.9114 144.684C114.71 114.667 99.3112 49.9421 99.3112 49.9421C99.3112 49.9421 158.907 83.9522 195.796 72.487C232.685 61.0219 260 0 260 0Z" fill="#FCAB99"/>
</mask>
<g mask="url(#mask0_233_849)">
<rect x="-263.985" y="57.1092" width="657.471" height="431.826" rx="5" fill="#FCAB99"/>
</g>
</svg>
