<svg width="238" height="307" viewBox="0 0 238 307" fill="none" xmlns="http://www.w3.org/2000/svg">
<mask id="mask0_233_860" style="mask-type:alpha" maskUnits="userSpaceOnUse" x="23" y="23" width="261" height="261">
<path d="M44.1747 123.289L118.322 45.6685C135.936 27.2294 165.163 26.5606 183.602 44.1747C202.041 61.7887 202.71 91.0155 185.096 109.455L190.519 114.635L195.942 119.816C213.556 101.377 242.783 100.708 261.222 118.322C279.661 135.936 280.33 165.163 262.716 183.602L188.569 261.222C170.955 279.661 141.728 280.33 123.289 262.716C104.85 245.102 104.181 215.875 121.795 197.436L116.372 192.255L110.948 187.075C93.3343 205.514 64.1075 206.183 45.6685 188.569C27.2294 170.955 26.5606 141.728 44.1747 123.289Z" fill="white" stroke="black" stroke-width="15"/>
</mask>
<g mask="url(#mask0_233_860)">
<rect x="-111" y="50" width="305" height="206" rx="5" fill="#B9E9DD"/>
</g>
</svg>
